<svg xmlns="http://www.w3.org/2000/svg" viewBox="0 0 3000 936.2" style="enable-background:new 0 0 3000 936.2" xml:space="preserve"><path d="M1581.1 235.2c0 33.7-27.2 60.9-60.9 60.9s-60.9-27.2-60.9-60.9 26.2-60.9 60.9-60.9c34.7 1 60.9 28.1 60.9 60.9zM1329.9 358v15s-29.1-37.5-90.9-37.5c-102.2 0-181.8 77.8-181.8 185.6 0 106.8 78.7 185.6 181.8 185.6 62.8 0 90.9-38.4 90.9-38.4v15.9c0 7.5 5.6 13.1 13.1 13.1h75.9V344.9H1343c-7.4 0-13.1 6.5-13.1 13.1zm0 225.9c-14.1 20.6-42.2 38.4-75.9 38.4-60 0-105.9-37.5-105.9-101.2S1194 419.9 1254 419.9c32.8 0 62.8 18.7 75.9 38.4v125.6zm145.3-239h90v352.4h-90V344.9zm1343.9-9.4c-61.9 0-90.9 37.5-90.9 37.5V175.3h-90v522h75.9c7.5 0 13.1-6.6 13.1-13.1v-15.9s29.1 38.4 90.9 38.4c102.2 0 181.8-78.7 181.8-185.6s-79.6-185.6-180.8-185.6zm-15 285.9c-34.7 0-61.9-17.8-75.9-38.4V457.3c14.1-18.7 44-38.4 75.9-38.4 60 0 105.9 37.5 105.9 101.2s-45.9 101.3-105.9 101.3zm-212.7-133.1v209.9h-90V498.6c0-58.1-18.7-81.5-69.4-81.5-27.2 0-55.3 14.1-73.1 34.7v245.5h-90V344.9h71.2c7.5 0 13.1 6.6 13.1 13.1v15c26.2-27.2 60.9-37.5 95.6-37.5 39.4 0 72.2 11.2 98.4 33.7 32 26.3 44.2 60 44.2 119.1zm-540.8-152.8c-61.9 0-90.9 37.5-90.9 37.5V175.3h-90v522h75.9c7.5 0 13.1-6.6 13.1-13.1v-15.9s29.1 38.4 90.9 38.4c102.2 0 181.8-78.7 181.8-185.6 1-106.9-78.6-185.6-180.8-185.6zm-15 285.9c-34.7 0-61.9-17.8-75.9-38.4V457.3c14.1-18.7 44-38.4 75.9-38.4 60 0 105.9 37.5 105.9 101.2s-45.9 101.3-105.9 101.3zM1792 335.5c27.2 0 41.2 4.7 41.2 4.7v83.4s-75-25.3-121.8 28.1v246.5h-90V344.9h75.9c7.5 0 13.1 6.6 13.1 13.1v15c16.9-19.7 53.5-37.5 81.6-37.5zM857.6 665.4c-4.7-11.2-9.4-23.4-14.1-33.7-7.5-16.9-15-32.8-21.6-47.8l-.9-.9c-64.7-140.6-134-283-207.1-423.6l-2.8-5.6c-7.5-14.1-15-29.1-22.5-44-9.4-16.9-18.7-34.7-33.7-51.5-30-37.7-73.1-58.3-119-58.3-46.9 0-89 20.6-120 56.2-14.1 16.9-24.4 34.7-33.7 51.5-7.5 15-15 30-22.5 44l-2.8 5.6C184.7 298 114.4 440.5 49.7 581.1l-.9 1.9c-6.6 15-14.1 30.9-21.6 47.8-4.7 10.3-9.4 21.6-14.1 33.7C1 699.1-2.7 731.9 2 765.7 12.3 836 59.1 895 123.8 921.3c24.4 10.3 49.7 15 75.9 15 7.5 0 16.9-.9 24.4-1.9 30.9-3.7 62.8-14.1 93.7-31.9C356.2 881 392.8 850 434 805c41.2 45 78.7 75.9 116.2 97.5 30.9 17.8 62.8 28.1 93.7 31.9 7.5.9 16.9 1.9 24.4 1.9 26.2 0 52.5-4.7 75.9-15C809.8 895 855.7 835 866 765.7c7.5-32.8 3.8-65.6-8.4-100.3zm-422.7 48.7c-50.6-63.7-83.4-123.7-94.7-174.3-4.7-21.6-5.6-40.3-2.8-57.2 1.9-15 7.5-28.1 15-39.4 17.8-25.3 47.8-41.2 82.5-41.2s65.6 15 82.5 41.2c7.5 11.2 13.1 24.4 15 39.4 2.8 16.9 1.9 36.6-2.8 57.2-11.3 49.7-44.1 109.7-94.7 174.3zm374 44.1c-6.6 48.7-39.4 90.9-85.3 109.7-22.5 9.4-46.9 12.2-71.2 9.4-23.4-2.8-46.9-10.3-71.2-24.4-33.7-18.7-67.5-47.8-106.8-90.9 61.9-75.9 99.3-145.3 113.4-207.1 6.6-29.1 7.5-55.3 4.7-79.7-3.7-23.4-12.2-45-25.3-63.7-29.1-42.2-77.8-66.5-132.1-66.5S332 370.3 303 411.5c-13.1 18.7-21.6 40.3-25.3 63.7-3.7 24.4-2.8 51.5 4.7 79.7C296.5 616.8 334.9 687 395.8 763c-38.4 43.1-73.1 72.2-106.8 90.9-24.4 14.1-47.8 21.6-71.2 24.4-25.3 2.8-49.7-.9-71.2-9.4-46.2-18.9-79-61-85.6-109.8-2.8-23.4-.9-46.9 8.4-73.1 2.8-9.4 7.5-18.7 12.2-30 6.6-15 14.1-30.9 21.6-46.9l.9-1.9c64.7-139.6 134-282.1 206.2-420.8l2.8-5.6c7.5-14.1 15-29.1 22.5-43.1 7.5-15 15.9-29.1 26.2-41.2 19.7-22.5 45.9-34.7 75-34.7s55.3 12.2 75 34.7c10.3 12.2 18.7 26.2 26.2 41.2 7.5 14.1 15 29.1 22.5 43.1l2.8 5.6C634.5 326 703.9 468.5 768.5 608.1v.9c7.5 15 14.1 31.9 21.6 46.9 4.7 11.2 9.4 20.6 12.2 30 7.5 24.5 10.3 47.9 6.6 72.3z" style="fill:#ff5a5f"/></svg>