
<svg xmlns="http://www.w3.org/2000/svg" width="100%" height="100%" viewBox="0 0 151 62" version="1.1" xml:space="preserve" style="fill-rule:evenodd;clip-rule:evenodd;stroke-linejoin:round;stroke-miterlimit:2" id="svg40">
    <g id="layer1" transform="matrix(1,0,0,1,-379.005,-301.773)">
        <g id="path2896" transform="matrix(1,0,0,1,379.005,301.773)">
            <path d="m 32.295,46.12 v 0 c 5.695094,-2.921359 9.194055,-9.448281 8.984915,-16.422988 -0.05323,-1.775202 -0.102024,-3.720963 -0.545024,-5.362963 -0.033,-0.122 -0.785891,-0.06305 -0.785891,-0.06305 0,0 -0.106,-0.356 -0.162,-0.532 C 37.093,15.317 28.934,9.164 19.288,9.164 H 0 v 41.21 h 19.288 c 4.894,0 9.39,-1.598 13.007,-4.254 z M 19.288,37.811 H 13.085 V 21.725 h 6.203 c 4.618,0 8.381,3.609 8.381,8.048 0,4.431 -3.763,8.038 -8.381,8.038 z" style="fill:#608df9;fill-rule:nonzero;stroke-width:1" id="path29"></path>
        </g>
        <g id="path2900" transform="matrix(1,0,0,1,379.005,301.773)">
            <path d="M 73.217,39.232 C 75.50198,31.63044 67.23,22.151424 59.538,21.436 v -0.001 0 C 59.41,21.39 59.286,21.343 59.153,21.3 c -0.037,-0.011 -0.077,-0.022 -0.109,-0.036 -0.094,-0.03 -0.186,-0.062 -0.279,-0.09 -1.995,-0.611 -4.111,-0.946 -6.312,-0.946 -4.694,0 -9.017,1.52 -12.503,4.044 0.508,1.752 0.798,3.595 0.798,5.501 0,6.661 -3.323,12.579 -8.449,16.346 2.292,8.641 10.446,15.06 20.154,15.06 4.552,0 8.753,-1.424 12.183,-3.814 1.963,1.703 4.732,2.803 8.639,3.365 V 40.215 c 0,-0.255 -0.032,-0.5 -0.041,-0.75 l -0.005,-0.114 c 0,-0.041 -0.009,-0.081 -0.01,-0.118 z m -13.026,1.963 c 0,4.094 -3.473,7.424 -7.738,7.424 -4.267,0 -7.738,-3.33 -7.738,-7.424 v -0.98 c 0,-4.091 3.471,-7.424 7.738,-7.424 4.265,0 7.738,3.333 7.738,7.424 z" style="fill:#abc600;fill-rule:nonzero" id="path32"></path>
        </g>
        <path id="path2902" d="m 477.52447,315.44705 c 0.005,-10e-4 -0.005,0.002 0,0 0.006,-0.006 -0.009,0.005 0,0 0.086,-0.062 0.35653,-0.17108 0.43753,-0.23508 l 0.002,-13.43897 h -13.08 v 21.241 c 0,3.512 -2.976,6.362 -6.631,6.362 -3.659,0 -6.629,-2.85 -6.629,-6.362 v -21.241 h -13.085 v 21.301 c 0,0.045 0.002,0.089 0.002,0.132 7.691,2.684 13.265,9.594 13.684,17.798 0.132,0.04 0.257,0.08 0.388,0.119 0.037,0.012 0.077,0.02 0.117,0.033 0.091,0.028 0.18,0.056 0.277,0.08 1.671,0.443 3.428,0.703 5.245,0.703 4.501,0 8.649,-1.475 11.97,-3.928 0.133,-0.095 0.258,-0.199 0.39,-0.3 2.07085,-2.95733 0.43649,-5.91065 0.49645,-8.872 0.11952,-5.90277 2.13812,-8.24861 6.41602,-13.39195" style="fill:#fbb900;fill-rule:nonzero"></path>
        <g id="path2904" transform="matrix(1,0,0,1,379.005,301.773)">
            <path d="M98.957,13.168C98.876,13.23 98.787,13.287 98.705,13.349C98.694,13.354 98.689,13.359 98.683,13.366C98.678,13.366 98.673,13.373 98.67,13.376C94.382,16.536 91.606,21.495 91.606,27.069L91.606,35.939L91.606,35.939L91.606,50.376L104.649,50.376L104.649,27.066C104.649,24.442 106.872,22.315 109.607,22.315C112.339,22.315 114.565,24.442 114.565,27.066L114.565,50.376L127.607,50.376L127.607,27.066C127.607,24.442 129.829,22.315 132.566,22.315C135.297,22.315 137.524,24.442 137.524,27.066L137.524,50.376L150.561,50.376L150.561,27.066C150.561,17.541 142.491,9.786 132.566,9.786L132.566,9.786C128.208,9.786 124.204,11.289 121.085,13.773C117.965,11.289 113.966,9.786 109.608,9.786C105.78,9.786 102.241,10.949 99.322,12.904C99.2,12.99 99.082,13.079 98.957,13.164L98.957,13.168ZM91.865,35.736L91.861,35.736C91.851,35.745 91.841,35.754 91.83,35.762C91.841,35.754 91.852,35.745 91.862,35.736L91.865,35.736Z" style="fill:rgb(239,104,94);fill-rule:nonzero" id="path36"></path>
        </g>
    </g>
</svg>