<svg xmlns="http://www.w3.org/2000/svg" viewBox="0 0 708.66 442.9"><defs><style>.cls-1{fill:#ea6852;}.cls-2{fill:#1f140f;}</style></defs><title>logo_login</title><g id="Layer_2" data-name="Layer 2"><g id="Layer_1-2" data-name="Layer 1"><polygon class="cls-1" points="169.06 359.02 150.59 3.14 159.83 2.65 178.3 358.56 169.06 359.02"/><path class="cls-2" d="M207.72,16.74c0,4.89,4.12,11.12,9.5,11.12s9.47-6.23,9.47-11.12c0-5.24-3.94-10.52-9.47-10.52s-9.5,5.28-9.5,10.52m-6.53.26c0-9,6.57-17,16-17s16,8,16,17c0,9.28-6.57,17.08-16,17.08s-16-7.8-16-17.08"/><path class="cls-2" d="M244.34,15.76h.81c3.47,0,5.92-1,5.92-5S248.53,6,245.19,6h-.85Zm15.59,17.47h-7.65l-7.86-13.06h-.08V33.23H238V.86h8.54c6.4,0,10.83,2.83,10.83,9.73,0,4.13-2.29,8.24-6.6,9Z"/><path class="cls-2" d="M285.62,23.53a11.17,11.17,0,0,0,2-6.71c0-5.24-3.84-10.82-9.49-10.82-6.14,0-9.5,5.8-9.5,11.37,0,5.37,3.3,10.61,9.5,10.61a6.69,6.69,0,0,0,3.39-1.07l-5.33-6.14,6.54-.51Zm2.8,11.06-2.23-2.7a14.6,14.6,0,0,1-8,2.19c-9.45,0-16-7.82-16-17.08,0-9,6.56-17,16-17s16,7.94,16,17a19.13,19.13,0,0,1-3.81,11.71l4.42,5.23Z"/><path class="cls-2" d="M298.8.86h6.32V19c0,4,.34,9.61,5.71,9.61S316.52,23,316.52,19V.86h6.32V20.21c0,7.91-3.35,13.87-12,13.87s-12-6-12-13.87Z"/><polygon class="cls-2" points="335.32 6.35 335.32 13.46 345.38 13.46 345.38 18.97 335.32 18.97 335.32 27.72 345.76 27.72 345.76 33.21 329.02 33.21 329.02 0.86 345.76 0.86 345.76 6.35 335.32 6.35"/><path class="cls-2" d="M366.9,8a5.82,5.82,0,0,0-4.84-2.66A3.86,3.86,0,0,0,358.12,9c0,5.44,12.82,3.17,12.82,14,0,6.49-4,11.08-10.64,11.08-4.47,0-7.71-2.59-10-6.31l4.09-4c.85,2.51,3.12,4.72,5.83,4.72s4.17-2.16,4.17-4.67c0-3.35-3.1-4.29-5.63-5.28-4.15-1.72-7.19-3.83-7.19-8.85A9.39,9.39,0,0,1,361,0c2.86,0,6.88,1.42,8.84,3.6Z"/><polygon class="cls-2" points="386.48 33.23 380.18 33.23 380.18 6.37 373.65 6.37 373.65 0.86 393.01 0.86 393.01 6.37 386.48 6.37 386.48 33.23"/><path class="cls-2" d="M403.37,15.76h.8c3.49,0,5.94-1,5.94-5S407.56,6,404.23,6h-.86Zm15.57,17.47H411.3l-7.87-13.06h-.06V33.23H397V.86h8.55c6.38,0,10.82,2.83,10.82,9.73,0,4.13-2.27,8.24-6.62,9Z"/><path class="cls-2" d="M434.77,9.49h-.09l-3.56,11.75h7.69ZM429.31,26.4l-2.63,6.83H420L432.63,0h4.88L449.8,33.23h-6.74l-2.49-6.83Z"/><path class="cls-2" d="M218.36,55.46c-1.28-2.24-2.82-3.53-5.57-3.53a5.13,5.13,0,0,0-5.36,5c0,2.79,2.86,4.08,5,5.08l2.15.93c4.21,1.85,7.76,3.95,7.76,9.09a10.21,10.21,0,0,1-20.25,1.65l3.51-1a6.7,6.7,0,0,0,6.48,6,6.51,6.51,0,0,0,6.68-6.31c0-3.78-3-5.08-6-6.45l-2-.85c-3.76-1.72-7-3.67-7-8.28,0-5,4.25-8.24,9.06-8.24a9.28,9.28,0,0,1,8.38,5Z"/><rect class="cls-2" x="229.06" y="49.14" width="3.6" height="32.39"/><polygon class="cls-2" points="240.72 47.76 265.97 74.22 265.97 49.14 269.58 49.14 269.58 82.95 244.34 56.57 244.34 81.5 240.72 81.5 240.72 47.76"/><polygon class="cls-2" points="281.2 52.49 281.2 62.12 291.98 62.12 291.98 65.44 281.2 65.44 281.2 81.53 277.59 81.53 277.59 49.14 292.32 49.14 292.32 52.49 281.2 52.49"/><path class="cls-2" d="M314.6,37.67l6.77,5.71-2.47,1.94-4.3-3.66-4.26,3.66-2.43-1.94ZM301.38,65.33a13.26,13.26,0,1,0,13.26-13.4,13.38,13.38,0,0,0-13.26,13.4m30.12,0a16.86,16.86,0,1,1-16.86-16.77A16.76,16.76,0,0,1,331.5,65.36"/><polygon class="cls-2" points="337.89 47.76 363.13 74.22 363.13 49.14 366.76 49.14 366.76 82.95 341.51 56.57 341.51 81.5 337.89 81.5 337.89 47.76"/><rect class="cls-2" x="374.85" y="49.14" width="3.62" height="32.39"/><path class="cls-2" d="M411,56.22a13.89,13.89,0,0,0-9.88-4.29c-7.21,0-13.05,6.26-13.05,13.4a13.44,13.44,0,0,0,13.14,13.39A14.21,14.21,0,0,0,411,74.44v4.45a16.61,16.61,0,0,1-9.67,3.16,16.73,16.73,0,1,1,0-33.46A15.64,15.64,0,0,1,411,51.75Z"/><path class="cls-2" d="M430.24,56l-5.57,13h11Zm-7,16.3-3.92,9.18h-3.94l14.92-33.9,14.57,33.9h-4l-3.81-9.18Z"/><path class="cls-2" d="M470.4,78.16c4,0,7.25-.56,10.21-3.33a12.91,12.91,0,0,0,4.05-9.5,12.75,12.75,0,0,0-4.22-9.7c-3-2.62-6.23-3.14-10-3.14h-2.62V78.16Zm-6.23-29h6.11c4.86,0,8.79.65,12.61,3.91a15.64,15.64,0,0,1,5.35,12.31A15.57,15.57,0,0,1,483,77.42c-3.87,3.44-7.72,4.08-12.79,4.08h-6Z"/><path class="cls-2" d="M496.53,65.33a13.27,13.27,0,1,0,13.28-13.4,13.39,13.39,0,0,0-13.28,13.4m30.14,0a16.87,16.87,0,1,1-16.86-16.77,16.76,16.76,0,0,1,16.86,16.77"/><polygon class="cls-2" points="547.35 49.14 564.13 49.14 564.13 52.49 550.96 52.49 550.96 62.12 563.75 62.12 563.75 65.44 550.96 65.44 550.96 78.16 564.13 78.16 564.13 81.5 547.35 81.5 547.35 49.14"/><path class="cls-2" d="M586.25,55.46c-1.29-2.24-2.84-3.53-5.61-3.53a5.14,5.14,0,0,0-5.35,5c0,2.79,2.89,4.08,5.08,5.08l2.14.93c4.2,1.85,7.76,3.95,7.76,9.09A10.21,10.21,0,0,1,570,73.7l3.51-1a6.7,6.7,0,0,0,6.49,6,6.5,6.5,0,0,0,6.65-6.31c0-3.78-3-5.08-6-6.45l-2-.85c-3.77-1.72-7-3.67-7-8.28,0-5,4.25-8.24,9.06-8.24a9.28,9.28,0,0,1,8.37,5Z"/><polygon class="cls-2" points="605.42 81.5 601.83 81.5 601.83 52.49 594.01 52.49 594.01 49.14 613.33 49.14 613.33 52.49 605.42 52.49 605.42 81.5"/><path class="cls-2" d="M626.71,56l-5.54,13h11Zm-7,16.3-3.9,9.18h-3.94l14.93-33.9,14.55,33.9h-4l-3.84-9.18Z"/><path class="cls-2" d="M652.38,78.16c4,0,7.25-.56,10.23-3.33a12.9,12.9,0,0,0,4-9.5,12.75,12.75,0,0,0-4.22-9.7c-2.95-2.62-6.22-3.14-10-3.14h-2.62V78.16Zm-6.22-29h6.1c4.86,0,8.8.65,12.62,3.91a15.65,15.65,0,0,1,5.36,12.31A15.57,15.57,0,0,1,665,77.42c-3.87,3.44-7.72,4.08-12.79,4.08h-6Z"/><path class="cls-2" d="M678.52,65.33a13.27,13.27,0,1,0,13.28-13.4,13.39,13.39,0,0,0-13.28,13.4m30.14,0A16.87,16.87,0,1,1,691.8,48.59a16.76,16.76,0,0,1,16.86,16.77"/><path class="cls-2" d="M209.05,124.29h1c7.78,0,10.8-4.27,10.8-10.68,0-7-3.62-10.68-10.8-10.68h-1Zm-6.31-26.86h9c9.37,0,15.63,7,15.63,16.23,0,9.08-6.45,16.14-15.68,16.14h-9Z"/><polygon class="cls-2" points="238.5 102.93 238.5 110.06 248.53 110.06 248.53 115.54 238.5 115.54 238.5 124.29 248.93 124.29 248.93 129.8 232.17 129.8 232.17 97.43 248.93 97.43 248.93 102.93 238.5 102.93"/><path class="cls-2" d="M284.2,104.55a5.81,5.81,0,0,0-4.83-2.64,3.84,3.84,0,0,0-4,3.64c0,5.44,12.84,3.18,12.84,14,0,6.49-4,11.07-10.66,11.07-4.44,0-7.71-2.58-9.94-6.32l4.07-4c.85,2.47,3.15,4.7,5.84,4.7s4.16-2.18,4.16-4.67c0-3.35-3.08-4.29-5.61-5.27-4.17-1.72-7.22-3.82-7.22-8.85a9.42,9.42,0,0,1,9.44-9.7c2.88,0,6.88,1.42,8.86,3.63Z"/><path class="cls-2" d="M305.33,106.06h-.09l-3.55,11.77h7.68Zm-8-13.48c.22-2.49,1.72-6,4.67-6a9.67,9.67,0,0,1,3.3.91,11.15,11.15,0,0,0,2.79.95c1.22,0,1.56-.86,2-1.8h3.55c-.47,2.73-2,6-5.2,6a7.78,7.78,0,0,1-2.95-.95,8.21,8.21,0,0,0-2.83-.94c-1.08,0-1.59.86-1.85,1.76ZM299.87,123l-2.67,6.83h-6.63l12.6-33.23h4.89l12.3,33.23H313.6L311.12,123Z"/><path class="cls-2" d="M329,113.31c0,4.89,4.12,11.12,9.48,11.12s9.5-6.23,9.5-11.12c0-5.24-4-10.51-9.5-10.51S329,108.07,329,113.31m-6.52.25c0-9,6.56-17,16-17s16,7.94,16,17c0,9.27-6.58,17.08-16,17.08s-16-7.81-16-17.08"/><path class="cls-2" d="M379.7,112.45H381c3.74,0,5.76-.82,5.76-5s-2.41-4.77-5.93-4.77H379.7Zm0,17.35h-6.32V97.42H382c6.79,0,11.2,2.71,11.2,10,0,6.87-3.72,10.21-10.32,10.21H379.7Z"/><path class="cls-2" d="M406.43,106.06h-.11l-3.55,11.77h7.69ZM401,123l-2.67,6.83h-6.65l12.62-33.23h4.88l12.3,33.23h-6.76L412.21,123Z"/><path class="cls-2" d="M424.9,97.43h6.31v18.11c0,4,.36,9.62,5.71,9.62s5.71-5.63,5.71-9.62V97.43h6.31v19.36c0,7.89-3.34,13.86-12,13.86s-12-6-12-13.86Z"/><polygon class="cls-2" points="461.43 124.29 470.36 124.29 470.36 129.8 455.12 129.8 455.12 97.42 461.43 97.42 461.43 124.29"/><path class="cls-2" d="M479.07,113.31c0,4.89,4.13,11.12,9.48,11.12S498,118.2,498,113.31c0-5.24-4-10.51-9.49-10.51s-9.48,5.27-9.48,10.51m-6.53.25c0-9,6.58-17,16-17s16,7.94,16,17c0,9.27-6.59,17.08-16,17.08s-16-7.81-16-17.08"/><path class="cls-2" d="M144.48,225.87c0,39.57-33.07,72.25-72.25,72.25S0,265.44,0,225.87s32.88-72.25,72.23-72.25c39.18,0,72.25,32.68,72.25,72.25"/><path class="cls-2" d="M253,200.25c-4.5-6.11-10.31-9.95-18.19-9.95-7.56,0-14.81,5.77-14.81,13.67,0,20.41,48.13,11.89,48.13,52.63,0,24.29-15.13,41.52-39.9,41.52-16.75,0-29-9.67-37.35-23.66l15.28-15c3.22,9.33,11.75,17.71,21.88,17.71,9.67,0,15.61-8.23,15.61-17.55,0-12.56-11.58-16.09-21.08-19.8-15.61-6.44-27-14.34-27-33.15,0-20.13,15-36.38,35.41-36.38,10.78,0,25.75,5.33,33.16,13.52Z"/><polygon class="cls-2" points="306.84 194.5 306.84 221.23 344.49 221.23 344.49 241.83 306.84 241.83 306.84 274.66 345.94 274.66 345.94 295.26 283.17 295.26 283.17 173.92 345.94 173.92 345.94 194.5 306.84 194.5"/><path class="cls-2" d="M528.14,246.23h5.78c10.33,0,21.48-1.72,21.48-14.81,0-12.65-12-13.3-21.67-13.3h-5.59Zm-56.65-72.31H546c37.75,0,65.66,19.32,65.66,59.42,0,33.06-20.6,53.65-53.44,53.65h-30v48.73H471.49Z"/><path class="cls-2" d="M298.59,332.08c-28,0-50.79,22.55-50.79,50.23A53.85,53.85,0,0,0,267.44,424c14.69,12.36,36.56,18.9,63.22,18.9,65.5,0,113-41.82,113-99.45,0-27.62-11.23-50-22.1-71.57L414.25,257c-10-20.77-17.86-37.19-18.15-57-.18-11.59,3.55-21.87,10.52-29a32.42,32.42,0,0,1,23.61-9.53c9.19,0,15.74,2.47,18.44,6.93a7.85,7.85,0,0,1,.05,8l0,.08c-1.46,3.15-3.27,7-3.27,12.24a12.56,12.56,0,0,0,12.52,12,18.55,18.55,0,0,0,5.42-.78l.32-.06c.36-.07,6.11-1.09,9.84-8.89,3.54-7.36-.64-16.64-.67-16.74a28.71,28.71,0,0,0-5.48-8.11c-7.67-8-19.74-12-35.89-12-37.46,0-65.7,24.74-65.7,57.54,0,15.08,6.41,32.84,16.06,54.9,2.54,5.87,5.42,11.7,8.18,17.31,10.56,21.39,21.49,43.57,21.49,77.07,0,19.57-7.34,37.6-20.66,50.87-14.42,14.32-34.47,21.9-58,21.9-37.74,0-63.44-28-63.73-54.1v-.89c0-23.39,11.71-35.32,19.62-36l.37,0c7.5.42,12.3,6.51,14.42,18.07,1.14,6.92,7.73,11.57,13.14,11.57,10.35,0,15-7.09,15-14.11a23.51,23.51,0,0,0-9.18-18.4c-6.12-4.93-14.6-7.66-23.87-7.66"/></g></g></svg>